<svg width="160" height="640" viewBox="0 0 160 640" fill="none" xmlns="http://www.w3.org/2000/svg">
<path d="M160 320C248.366 320 320 248.366 320 160C320 71.6344 248.366 0 160 0C71.6344 0 0 71.6344 0 160C0 248.366 71.6344 320 160 320Z" fill="#5036E6"/>
<path d="M160 320C117.565 320 76.8688 303.143 46.863 273.137C16.8571 243.131 0 202.435 0 160H160V320Z" fill="white"/>
<path d="M159.999 80C115.817 80 79.9993 115.817 79.9993 160C79.9993 204.183 115.817 240 159.999 240C204.182 240 239.999 204.183 239.999 160C239.999 115.817 204.182 80 159.999 80Z" fill="black"/>
<path d="M80 160C80 138.783 88.4285 118.434 103.431 103.431C118.434 88.4285 138.783 80 160 80C181.217 80 201.566 88.4285 216.569 103.431C231.571 118.434 240 138.783 240 160L80 160Z" fill="white"/>
<ellipse cx="160" cy="159.569" rx="160" ry="159.569" transform="matrix(-1 0 0 1 320 320)" fill="#5036E6"/>
<path d="M-1.19209e-06 480.431C-1.19209e-06 522.751 16.8571 563.338 46.863 593.263C76.8688 623.188 117.565 640 160 640V480.431H-1.19209e-06Z" fill="white"/>
</svg>
